<?xml version="1.0" encoding="UTF-8"?>
<svg width="24px" height="22px" viewBox="0 0 24 22" version="1.1" xmlns="http://www.w3.org/2000/svg" xmlns:xlink="http://www.w3.org/1999/xlink">
    <!-- Generator: Sketch 60 (88103) - https://sketch.com -->
    <title>Path</title>
    <desc>Created with Sketch.</desc>
    <g id="Page-1" stroke="none" stroke-width="1" fill="none" fill-rule="evenodd">
        <g id="Artboard" fill="#E1DBDB" fill-rule="nonzero">
            <path d="M17.625,0 C16.3226719,0 15.1286719,0.4126875 14.0762344,1.226625 C13.06725,2.00695312 12.3954844,3.00084375 12,3.7235625 C11.6045156,3.00079688 10.93275,2.00695312 9.92376562,1.226625 C8.87132812,0.4126875 7.67732812,0 6.375,0 C2.7406875,0 0,2.97267188 0,6.91471875 C0,11.1735 3.41920313,14.0872969 8.59542187,18.498375 C9.47442188,19.2474844 10.47075,20.0965781 11.5063125,21.0021562 C11.6428125,21.1216875 11.818125,21.1875 12,21.1875 C12.181875,21.1875 12.3571875,21.1216875 12.4936875,21.0022031 C13.5293437,20.0964844 14.525625,19.2474375 15.4051406,18.4979062 C20.5807969,14.0872969 24,11.1735 24,6.91471875 C24,2.97267188 21.2593125,0 17.625,0 Z" id="Path"></path>
        </g>
    </g>
</svg>